<svg width="1440" height="560" viewBox="0 0 1440 560" fill="none" xmlns="http://www.w3.org/2000/svg">
<g clip-path="url(#clip0)">
<path d="M0 560L1440 560V0L0 0V560Z" fill="#53A3ED"/>
<path d="M425.834 -785C298.759 -782.444 202.449 -669.421 116.053 -576.198C44.3526 -498.833 26.2548 -392.342 -24.0122 -299.608C-79.1012 -197.978 -192.093 -120.715 -193.5 -5.12366C-194.938 113.02 -110.643 214.386 -31.3341 301.966C46.7309 388.171 -237.045 393.025 -130.669 440.031C-10.1337 493.294 213.332 492.031 318.332 412.031C428.832 317.532 391.832 250.531 499.332 167.531C650.832 91.5312 991 246.5 1075.5 131C1207.5 -86.5 936.501 -240.5 1025.83 -259.969C972.812 -354.241 817.531 -509.759 743.729 -588.826C657.008 -681.734 552.9 -787.556 425.834 -785Z" fill="#93C5F4"/>
</g>
<defs>
<clipPath id="clip0">
<rect width="1440" height="560" fill="white" transform="translate(1440 560) rotate(-180)"/>
</clipPath>
</defs>
</svg>
